<?xml version="1.0" standalone="no"?>
<!DOCTYPE svg PUBLIC "-//W3C//DTD SVG 20010904//EN"
 "http://www.w3.org/TR/2001/REC-SVG-20010904/DTD/svg10.dtd">
<svg version="1.0" xmlns="http://www.w3.org/2000/svg"
 width="1080.000000pt" height="1080.000000pt" viewBox="0 0 1080.000000 1080.000000"
 preserveAspectRatio="xMidYMid meet">
<metadata>
Created by potrace 1.16, written by Peter Selinger 2001-2019
</metadata>
<g transform="translate(0.000000,1080.000000) scale(0.100000,-0.100000)"
fill="#FF9E2C" stroke="none">
<path d="M5255 9510 c-22 -4 -63 -17 -92 -28 -28 -11 -487 -271 -1020 -578
l-968 -559 -86 -85 c-71 -70 -94 -100 -130 -175 l-44 -90 0 -1260 0 -1260 49
-98 c38 -76 64 -113 120 -170 69 -69 112 -95 1037 -628 530 -307 982 -566
1005 -577 145 -73 402 -73 547 -1 23 11 476 271 1006 577 925 534 968 560
1037 629 56 57 82 93 117 165 25 51 50 117 56 146 15 74 15 2360 0 2434 -6 29
-29 91 -51 138 -34 70 -56 100 -127 170 l-86 85 -970 560 c-624 360 -995 569
-1040 584 -57 20 -94 25 -195 27 -69 2 -143 -1 -165 -6z m226 -374 c20 -7 461
-257 980 -556 1016 -585 1015 -585 1052 -686 15 -43 17 -89 17 -366 0 -175 -2
-318 -4 -318 -2 0 -93 52 -202 117 -247 144 -269 153 -382 153 -110 -1 -137
-12 -387 -158 l-190 -111 -5 252 c-5 252 -5 252 -34 314 -43 93 -112 152 -303
258 -121 67 -161 94 -157 105 19 50 25 149 14 219 -45 285 -312 461 -600 395
-239 -54 -397 -293 -360 -546 6 -44 10 -81 8 -83 -2 -1 -77 -45 -167 -96 -197
-113 -236 -146 -282 -235 l-34 -68 -3 -548 c-1 -301 -5 -548 -7 -548 -2 0 -84
47 -182 104 -269 156 -275 159 -370 164 -47 3 -103 -1 -130 -8 -27 -6 -142
-66 -257 -133 -116 -67 -213 -123 -218 -125 -4 -2 -8 270 -8 605 0 550 2 613
17 656 38 106 31 101 1052 688 519 298 960 548 980 555 46 17 116 17 162 0z
m-5 -780 c59 -59 44 -131 -38 -181 -14 -9 -10 -26 39 -151 l55 -141 229 -134
229 -133 0 -1501 0 -1500 -252 -145 -253 -145 -85 0 -85 0 -252 145 -253 145
0 1501 0 1502 230 133 229 133 51 133 c27 73 50 135 50 138 0 3 -18 23 -40 44
-34 33 -40 44 -40 80 0 36 6 49 34 77 28 28 42 34 76 34 34 0 48 -6 76 -34z
m2052 -2157 c3 -629 4 -613 -57 -702 -26 -37 -58 -57 -933 -563 l-178 -103 0
972 0 972 292 166 291 166 291 -167 291 -167 3 -574z m-3348 141 c135 -78 248
-144 253 -149 4 -4 6 -312 5 -684 l-3 -676 -538 313 c-577 335 -572 332 -611
436 -14 39 -16 84 -14 329 l3 284 290 168 290 167 40 -23 c22 -13 150 -87 285
-165z"/>
<path d="M5640 7354 c-141 -83 -130 -63 -130 -236 0 -146 0 -148 22 -148 30 0
204 105 223 134 22 34 18 299 -5 304 -8 1 -58 -23 -110 -54z"/>
<path d="M5629 6777 c-130 -78 -119 -57 -119 -229 0 -120 3 -150 14 -154 23
-9 223 116 236 146 6 15 9 80 8 155 l-3 130 -25 2 c-15 1 -59 -19 -111 -50z"/>
<path d="M5630 6204 c-52 -30 -101 -63 -107 -72 -9 -11 -13 -61 -13 -164 0
-134 2 -148 18 -148 9 0 63 28 120 61 71 42 106 69 113 86 5 14 8 85 7 157 -4
160 -3 160 -138 80z"/>
<path d="M5638 5636 c-138 -83 -128 -65 -128 -238 0 -147 0 -148 23 -147 33 1
210 111 224 139 9 17 12 66 11 160 -4 164 -3 164 -130 86z"/>
<path d="M5640 5064 c-141 -83 -130 -63 -130 -236 0 -146 0 -148 22 -148 30 0
204 105 223 134 22 34 18 299 -5 304 -8 1 -58 -23 -110 -54z"/>
<path d="M7179 6477 c-130 -78 -119 -57 -119 -229 0 -120 3 -150 14 -154 23
-9 223 116 236 146 6 15 9 80 8 155 l-3 130 -25 2 c-15 1 -59 -19 -111 -50z"/>
<path d="M7180 5904 c-52 -30 -101 -63 -107 -72 -9 -11 -13 -60 -13 -159 0
-118 3 -145 15 -149 20 -8 217 108 233 137 8 17 11 66 10 159 -4 165 -2 164
-138 84z"/>
<path d="M4071 5791 c-52 -32 -100 -67 -108 -77 -9 -13 -13 -58 -13 -161 0
-141 0 -143 22 -143 25 0 194 97 221 128 15 17 17 37 15 163 -4 175 -1 174
-137 90z"/>
<path d="M4145 3555 c-97 -27 -216 -95 -281 -160 -189 -188 -262 -569 -231
-1210 19 -408 96 -645 250 -782 69 -60 199 -121 307 -143 68 -14 415 -8 483 8
164 39 310 138 391 265 130 203 145 283 153 807 7 518 -12 686 -98 856 -59
116 -105 175 -188 238 -79 61 -126 84 -229 112 -79 21 -106 23 -297 23 -145
-1 -225 -5 -260 -14z m372 -450 c32 -8 69 -23 83 -33 48 -35 85 -105 109 -204
21 -91 23 -116 23 -455 0 -433 -12 -519 -87 -617 -58 -76 -224 -116 -339 -81
-102 31 -155 100 -183 237 -22 110 -26 779 -4 898 24 134 72 213 156 250 51
23 163 25 242 5z"/>
<path d="M2362 3520 c-32 -32 -48 -89 -38 -137 3 -16 2 -480 -3 -1033 -4 -553
-5 -1015 0 -1027 19 -50 45 -53 543 -53 512 0 492 -3 515 67 18 54 12 363 -8
386 -12 15 -46 17 -302 17 l-288 0 5 443 c2 243 7 624 10 847 6 417 3 462 -34
503 -13 15 -36 17 -193 17 l-177 0 -30 -30z"/>
<path d="M5601 3521 c-17 -16 -31 -33 -31 -38 -4 -89 -13 -1089 -14 -1543 -1
-458 2 -610 11 -627 18 -32 62 -41 232 -47 202 -7 227 6 221 108 -2 23 -2 73
-1 111 1 39 2 222 4 408 l2 338 32 -38 c18 -21 40 -52 48 -70 8 -17 41 -67 73
-110 124 -169 256 -356 358 -508 157 -235 158 -235 431 -235 l201 0 31 26 c50
41 44 59 -56 191 -27 34 -75 99 -108 144 -33 45 -116 156 -184 248 -68 91
-154 211 -190 266 -37 55 -88 129 -114 165 -29 39 -47 75 -47 91 0 17 21 57
53 103 28 42 100 147 159 233 59 87 136 192 171 233 35 42 87 111 116 153 28
42 64 92 79 109 16 18 56 72 91 120 60 84 62 90 59 140 l-3 53 -225 3 c-124 1
-235 0 -247 -3 -42 -10 -93 -67 -200 -224 -121 -176 -162 -236 -304 -441 -55
-80 -126 -183 -157 -229 l-57 -84 -5 467 -5 468 -30 24 c-29 23 -36 24 -196
24 l-167 0 -31 -29z"/>
<path d="M7558 3528 c-14 -13 -30 -39 -35 -58 -6 -20 -9 -486 -9 -1100 l1
-1065 35 -17 c31 -15 82 -17 506 -18 l471 0 19 23 c38 42 44 74 44 228 0 108
-4 159 -14 184 l-15 35 -290 0 -291 0 6 478 c3 262 7 650 8 862 1 367 0 387
-19 425 l-20 40 -185 3 c-179 2 -186 1 -212 -20z"/>
</g>
</svg>
